<?xml version="1.0" encoding="UTF-8"?><svg id="_Слой_2" xmlns="http://www.w3.org/2000/svg" width="100" height="57.42" viewBox="0 0 100 57.42"><g id="_Слой_2-2"><g id="_Слой_2-2"><g id="_Слой_1-2"><path d="M34.1,35.17h-7.99c-.28,0-.57-.15-.72-.43-.72-1.29-1.42-2.56-2.14-4-1.42,2.56-2.85,4.99-4.28,7.7h16.4c.43,0,.57.15.72.57,3.28,5.84,6.56,11.7,9.84,17.54,0,.15.15.28.28.57H0c0-.28.15-.43.28-.72,1.29-2.14,2.43-4.28,3.57-6.43.28-.43.43-.57,1-.57h28.82c-.72-1.14-1.29-2.14-1.71-3.13,0-.15-.28-.15-.57-.15H5.99c5.71-10.28,11.42-20.4,17.12-30.53,3.71,6.56,7.28,12.99,10.98,19.55h0v.02Z" style="fill:#fff; stroke-width:0px;"/><path d="M53.5,57c7.7-13.84,15.4-27.53,23.25-41.36,3.71,6.56,7.42,13.27,11.13,19.83h-7.85c-.28,0-.43-.15-.72-.43-.72-1.29-1.42-2.56-2.14-3.71,0-.15-.28-.28-.28-.57-3.57,6.28-7,12.41-10.41,18.55h20.82c-.28-.57-.57-1.14-1-1.57-.28-.57-.43-1.42-1-1.57-.43-.28-1.14,0-1.86,0h-11.27c.28-.57.57-1.14.85-1.57,1-1.57,1.71-3.13,2.71-4.85.15-.28.28-.43.72-.43h13.12c.28,0,.57.15.72.28,3.13,5.71,6.43,11.42,9.56,17.12.15,0,.15.15.15.28h-46.5Z" style="fill:#fff; stroke-width:0px;"/><path d="M26.68,15.62h7.99c.28,0,.57.15.72.43,4.7,8.42,9.56,16.97,14.13,25.24,0,.15.15.28.28.57.57-1,1.14-1.99,1.71-2.85,4.28-7.7,8.56-15.27,12.84-22.83,0-.15.28-.28.43-.28h8.27c-7.7,13.84-15.4,27.53-23.12,41.51-7.85-14.13-15.55-27.82-23.25-41.8h0Z" style="fill:#fff; stroke-width:0px;"/><path d="M49.93,35.17c-3.57-6.56-7.28-12.99-10.85-19.4h21.68c-3.57,6.43-7.28,12.84-10.85,19.4h.01Z" style="fill:#00abf0; stroke-width:0px;"/><path d="M25.71,11.27l1.25-.32V2.34l-1.25-.31V.22h6.24v1.8l-1.32.3v8.64h2.66l.89-2.67h2.03l-.24,4.78h-10.26v-1.8Z" style="fill:#00abf0; stroke-width:0px;"/><path d="M42.95,13.3c-.87,0-1.67-.14-2.4-.4-.73-.27-1.37-.67-1.91-1.21s-.95-1.23-1.26-2.04c-.3-.82-.46-1.8-.46-2.9,0-1.18.17-2.18.52-3.03s.8-1.55,1.36-2.09c.57-.54,1.21-.95,1.96-1.21.73-.26,1.5-.38,2.3-.38.87,0,1.67.14,2.4.4.73.26,1.36.67,1.89,1.21.53.54.95,1.23,1.26,2.04.3.82.46,1.8.46,2.9,0,1.18-.17,2.19-.51,3.03-.33.84-.79,1.55-1.36,2.08s-1.21.95-1.96,1.21c-.74.26-1.5.4-2.3.4ZM42.99,11.01c.72,0,1.28-.32,1.67-.98.4-.64.59-1.73.59-3.26,0-.87-.05-1.58-.14-2.17-.09-.58-.24-1.04-.42-1.39s-.42-.59-.71-.74c-.28-.15-.61-.22-.99-.22-.71,0-1.26.33-1.66.99s-.59,1.75-.59,3.23c0,.85.04,1.57.12,2.14s.22,1.04.4,1.39c.17.35.41.61.69.76.28.16.62.24,1.03.24h0Z" style="fill:#00abf0; stroke-width:0px;"/><path d="M56.54,13.3c-1.04,0-1.97-.12-2.8-.36-.83-.25-1.54-.62-2.1-1.15-.58-.52-1.03-1.2-1.34-2.03-.31-.83-.47-1.83-.47-3.01,0-1.26.19-2.32.56-3.18.37-.85.88-1.55,1.5-2.08.63-.52,1.36-.9,2.19-1.14.83-.24,1.71-.35,2.62-.35.82,0,1.58.06,2.29.17.71.11,1.26.25,1.67.42l.15,3.78h-2.19l-.62-1.76c-.2-.09-.4-.16-.63-.21s-.53-.07-.9-.07c-.98,0-1.68.35-2.13,1.03s-.66,1.7-.66,3.01c0,.88.05,1.61.15,2.2.1.59.26,1.08.48,1.44s.51.62.85.78.78.24,1.29.24c.22,0,.42-.02.62-.06s.36-.07.48-.12v-2.06l-1.11-.3v-1.8h5.53v1.8l-.98.3v3.8c-.48.17-1.11.33-1.91.48s-1.65.22-2.54.22h-.01Z" style="fill:#00abf0; stroke-width:0px;"/><path d="M68.61,13.3c-.87,0-1.67-.14-2.4-.4-.73-.27-1.37-.67-1.91-1.21s-.95-1.23-1.26-2.04c-.3-.82-.46-1.8-.46-2.9,0-1.18.17-2.18.52-3.03.35-.84.79-1.55,1.36-2.09.57-.54,1.21-.95,1.96-1.21.73-.26,1.5-.38,2.3-.38.87,0,1.67.14,2.4.4.73.26,1.36.67,1.91,1.21.53.54.95,1.23,1.25,2.04.3.82.46,1.8.46,2.9,0,1.18-.17,2.19-.51,3.03-.33.84-.79,1.55-1.35,2.08-.57.54-1.21.95-1.96,1.21-.73.26-1.5.4-2.3.4h-.01ZM68.65,11.01c.72,0,1.28-.32,1.67-.98.4-.64.59-1.73.59-3.26,0-.87-.05-1.58-.14-2.17-.09-.58-.24-1.04-.42-1.39s-.42-.59-.71-.74c-.28-.15-.61-.22-.99-.22-.71,0-1.26.33-1.67.99-.4.66-.59,1.75-.59,3.23,0,.85.04,1.57.12,2.14s.22,1.04.4,1.39c.17.35.41.61.69.76.28.16.62.24,1.03.24h.01Z" style="fill:#00abf0; stroke-width:0px;"/></g></g></g></svg>